Coordinates
version=1
nRows=9
nColumns=36
inDegrees=yes

Units are S.I. units (second, meters, Newtons, ...)
If the header above contains a line with 'inDegrees', this indicates whether rotational values are in degrees (yes) or radians (no).

endheader
time	pelvis_tilt	pelvis_list	pelvis_rotation	pelvis_tx	pelvis_ty	pelvis_tz	hip_flexion_r	hip_adduction_r	hip_rotation_r	knee_angle_r	knee_angle_r_beta	ankle_angle_r	subtalar_angle_r	mtp_angle_r	hip_flexion_l	hip_adduction_l	hip_rotation_l	knee_angle_l	knee_angle_l_beta	ankle_angle_l	subtalar_angle_l	mtp_angle_l	lumbar_extension	lumbar_bending	lumbar_rotation	arm_flex_r	arm_add_r	arm_rot_r	elbow_flex_r	pro_sup_r	arm_flex_l	arm_add_l	arm_rot_l	elbow_flex_l	pro_sup_l
      1.93333330	      1.69945291	      2.38599787	      2.47466103	     -0.09638988	      1.04732120	      0.12018611	     -0.48965206	      0.44998972	    -10.83341079	      0.37405241	      0.00652845	      7.78632770	     -4.87991608	     -7.49999987	     -0.62791935	      3.39035032	     -6.74508669	      0.40833911	      0.00712686	      9.00998606	      1.31775544	     -7.49999987	      0.15068862	     -2.56929005	      5.24816878	     -2.98431466	     -4.32668446	     12.29170006	     32.10955233	     74.10356688	      1.52191977	     -7.19239702	     18.67165442	     30.36867779	     76.69738117
      1.95000000	      1.73154651	      2.39883121	      2.60277637	     -0.09419688	      1.04789974	      0.11968268	     -0.56053002	      0.45121961	    -10.95154177	      0.36785767	      0.00642033	      8.00554261	     -4.60407716	     -7.49999987	     -0.73265510	      3.39321812	     -6.71494810	      0.40965093	      0.00714976	      8.97140011	      1.38630472	     -7.49999987	      0.16270609	     -2.64482362	      5.16548259	     -3.12051693	     -4.24591864	     12.18478533	     32.25831556	     72.65774269	      1.44151470	     -7.24298414	     18.60805974	     30.71024773	     74.98712658
      1.96666670	      1.70854738	      2.45105561	      2.65259066	     -0.09416775	      1.04670591	      0.11959067	     -0.63815881	      0.37096241	    -10.89025069	      0.36393532	      0.00635187	      7.69219140	     -5.06834875	     -7.49999987	     -0.79040505	      3.46070720	     -6.84260508	      0.42333496	      0.00738859	      8.72687732	      1.32545561	     -7.49999987	      0.31932918	     -2.71171390	      5.16204788	     -3.14746055	     -4.17074474	     12.25468079	     31.96633468	     71.96054663	      1.52055082	     -7.23398385	     18.73167501	     30.44941127	     74.19412474
      1.98333330	      1.65725615	      2.44619705	      2.78373754	     -0.09331685	      1.04790386	      0.11950341	     -0.57160347	      0.40135497	    -11.01279400	      0.36070602	      0.00629551	      8.06689834	     -4.48160978	     -7.49999987	     -0.78304493	      3.45780474	     -6.61691450	      0.43003498	      0.00750553	      8.48859155	      0.81427105	     -7.49999987	      0.46782610	     -2.73449653	      5.06397112	     -3.17306796	     -4.13505408	     12.30987423	     31.89989859	     72.01781279	      1.50661295	     -7.28800779	     18.91239141	     30.39571182	     74.28025041
      2.00000000	      1.81644347	      2.49111816	      2.87587543	     -0.09364248	      1.04978241	      0.11894549	     -0.79094260	      0.35900845	    -10.93073567	      0.35074718	      0.00612169	      8.20913099	     -4.06733034	     -7.49999987	     -1.04389046	      3.50825145	     -6.95459654	      0.44717614	      0.00780470	      8.26016039	      1.12715877	     -7.49999987	      0.36539346	     -2.75241189	      5.21951626	     -3.22885961	     -4.24159339	     12.74724171	     31.86124931	     72.95461369	      1.80007335	     -7.34026483	     20.19564096	     30.22286514	     75.42087874
      2.01666670	      1.97358976	      2.51188261	      2.89906370	     -0.09294998	      1.04988721	      0.11885495	     -1.09487314	      0.33923336	    -11.01722329	      0.35007660	      0.00610999	      7.89040394	     -4.23422647	     -7.49999987	     -1.32120693	      3.50758584	     -6.93762057	      0.46063190	      0.00803954	      7.80793827	      0.76152426	     -7.49999987	      0.28696672	     -2.78551647	      5.15329540	     -3.20067488	     -4.09551470	     12.28405335	     31.62613145	     73.22196320	      1.76315721	     -7.37028891	     19.68685815	     30.12967481	     75.68810138
      2.03333330	      2.07816544	      2.51882438	      2.97745623	     -0.09320758	      1.04726491	      0.11850647	     -1.23119217	      0.35159743	    -11.21121996	      0.34677987	      0.00605245	      8.24147991	     -3.56229766	     -7.49999987	     -1.49438987	      3.53091379	     -6.77892129	      0.47954428	      0.00836963	      7.60552328	      0.40790043	     -7.49999987	      0.20966440	     -2.81224698	      5.01834622	     -3.15208657	     -4.06500745	     12.14989901	     31.53352665	     72.93092865	      1.73699424	     -7.43026691	     19.46284369	     30.15820408	     75.29123695
      2.05000000	      2.15263283	      2.50999487	      3.01832588	     -0.09444793	      1.04790262	      0.11921846	     -1.36370710	      0.37731067	    -11.10967944	      0.34363305	      0.00599753	      8.16849316	     -3.66468684	     -7.49999987	     -1.58543423	      3.52972413	     -6.81003298	      0.48540739	      0.00847196	      7.30184787	      0.47388885	     -7.49999987	      0.17781711	     -2.81337171	      4.88721574	     -3.05457925	     -4.05668247	     12.33484452	     31.42218414	     72.99591429	      1.74806533	     -7.46047082	     19.50262952	     30.09068380	     75.28899805
      2.06666670	      2.21792977	      2.44103824	      2.93469336	     -0.09371621	      1.04750182	      0.11893285	     -1.43606231	      0.44616803	    -10.93833191	      0.34912541	      0.00609339	      8.02170250	     -4.03837415	     -7.49999987	     -1.65506615	      3.47414367	     -7.08894996	      0.49426346	      0.00862652	      7.38836791	      0.73135286	     -7.49999987	      0.18569666	     -2.72956095	      4.82455405	     -2.96535993	     -4.09310006	     12.49140911	     31.22992140	     73.43852867	      1.67547038	     -7.47501947	     19.33864068	     30.05817348	     75.72146314
